# xmcd
#
# Track frame offsets: 
#        150
#        18350
#        41250
#        55837
#        69602
#        85160
#        106222
#        124250
#        139297
#        148570
#
# Disc length: 2378 seconds
#
# Revision: 0
# Processed by: cddbd v1.5.2PL0 Copyright (c) Steve Scherf et al.
# Submitted via: ExactAudioCopy v1.0b3
#
DISCID=8709480a
DTITLE=Asleep At The Wheel - Framed (1980 MCA)
DYEAR=1980
DGENRE=Western Swing
TTITLE0=Midnight In Memphis
TTITLE1=Lonely Avenue Revisited
TTITLE2=Slow Dancing
TTITLE3=Cool As A Breeze
TTITLE4=You Wanna Give Me A Lift
TTITLE5=Don't Get Caught Out In The Rain
TTITLE6=Whatever It Takes
TTITLE7=Fiddle Funk-Corn Fusion
TTITLE8=Up, Up, Up
TTITLE9=Musical Talk
EXTD=
EXTT0=
EXTT1=
EXTT2=
EXTT3=
EXTT4=
EXTT5=
EXTT6=
EXTT7=
EXTT8=
EXTT9=
PLAYORDER=
